<svg width="144" height="56" viewBox="0 0 144 56" fill="none" xmlns="http://www.w3.org/2000/svg">
<path d="M18.4959 48.8407L18.3061 50.3593C18.2248 51.0915 18.7942 51.7423 19.5536 51.7423H68.5836C69.3429 51.7423 69.9395 51.0915 69.8582 50.3593L69.6684 48.8407C69.5599 47.6746 70.4006 46.5898 71.5667 46.4814C72.7599 46.3458 73.7904 47.2136 73.8988 48.3797L74.0887 49.8441C74.4683 53.1254 72.6243 55.9999 69.2887 55.9999H18.8485C15.54 55.9999 13.6689 53.1254 14.0485 49.8441L14.2384 48.3797C14.3739 47.2136 15.4044 46.3458 16.5705 46.4814C17.7637 46.617 18.6315 47.6746 18.4959 48.8407Z" fill="#D60510"/>
<path d="M63.8378 37.478C66.2242 37.478 68.1225 35.7424 68.0682 33.4644C68.014 31.1322 65.8988 29.6136 63.5123 29.6136H58.7124C57.6548 29.6136 56.787 28.7187 56.787 27.634C56.787 26.5221 57.6548 25.6272 58.7124 25.6272H61.9124C64.0818 25.5458 65.736 24.2442 65.8445 22.1832C65.953 19.9866 64.0818 18.3595 61.7768 18.3595H53.9938L53.9667 37.5051H63.8378V37.478ZM69.7224 22.1561C69.7224 24.1628 69.0174 25.2747 67.8513 26.6848L67.7428 26.8204L67.9055 26.9289C70.2377 28.339 71.8377 30.4814 71.9733 33.4644C72.1631 37.939 68.3665 41.6271 63.8649 41.6271H52.0141C50.848 41.6271 49.926 40.6779 49.926 39.4847V16.4883C49.926 15.2951 50.848 14.3459 52.0141 14.3459L61.7768 14.4002C66.0615 14.4002 69.7224 17.5188 69.7224 22.1561Z" fill="black"/>
<path d="M31.5397 33.7352L31.5939 33.8979L31.6481 33.7352C32.1905 32.2166 32.8685 30.5352 33.5735 28.7183C34.3057 26.7929 35.0108 24.9488 35.743 23.2133C36.4752 21.4234 37.1532 19.8506 37.8311 18.4675C38.482 17.0574 39.0243 16.0811 39.4582 15.5659C40.1091 14.7794 40.9497 14.3998 42.0345 14.3998H42.5226C43.1735 14.3998 43.6887 14.5625 44.0684 14.8879C44.4209 15.1862 44.6378 15.5388 44.6921 15.9455L47.7565 39.7013C47.7565 40.325 47.5938 40.786 47.2412 41.1385C46.8887 41.464 46.4005 41.6267 45.7497 41.6267C45.0989 41.6267 44.5836 41.464 44.204 41.1656C43.7972 40.8673 43.5531 40.4606 43.4989 39.9724C43.3904 39.186 43.309 38.3182 43.2006 37.342C43.065 36.3928 42.5769 32.2437 42.4413 31.1861C42.3057 30.1013 41.465 23.4031 41.1667 20.9624L41.1396 20.7455L40.1633 22.8065C39.8379 23.5116 39.4582 24.3522 39.0786 25.3556C38.6989 26.359 38.2921 27.3895 37.8854 28.5014C37.4515 29.5861 35.5532 34.9827 35.5532 34.9827C35.3905 35.4708 35.0379 36.4742 34.7396 37.3691C34.4413 38.264 34.143 39.1047 34.0888 39.2402C33.6278 40.1352 32.76 40.7318 31.6481 40.7318C30.5092 40.7318 29.6414 40.1352 29.1804 39.2402C29.099 39.0775 28.8278 38.264 28.5024 37.3691C28.2041 36.447 27.8787 35.4708 27.6889 34.9827C27.6889 34.9827 25.7906 29.559 25.3567 28.5014C24.9499 27.3895 24.5702 26.359 24.1635 25.3556C23.7567 24.3522 23.4041 23.5116 23.0787 22.8065L22.1025 20.7455L22.0753 20.9624C21.777 23.4031 20.9093 30.1013 20.8008 31.1861C20.6652 32.2437 20.1771 36.3657 20.0686 37.342C19.9601 38.3182 19.8788 39.186 19.7703 39.9724C19.716 40.4606 19.472 40.8673 19.0652 41.1656C18.6855 41.464 18.1703 41.6267 17.5195 41.6267C16.8686 41.6267 16.3805 41.464 16.0279 41.1385C15.6754 40.786 15.5127 40.2979 15.5127 39.7013L18.5771 15.9455C18.6313 15.5388 18.8483 15.1862 19.2008 14.8879C19.5805 14.5625 20.0957 14.3998 20.7465 14.3998H21.2347C22.2923 14.3998 23.1601 14.7794 23.8109 15.5659C24.2448 16.1082 24.7872 17.0574 25.438 18.4675C26.0889 19.8506 26.7939 21.4234 27.5261 23.2133C28.2583 24.976 28.9634 26.7929 29.6956 28.7183C30.3193 30.5624 30.9973 32.2437 31.5397 33.7352Z" fill="black"/>
<path d="M25.5191 0H62.7798C66.278 0 68.0407 2.63049 68.4475 6.10164L68.6102 7.2135C68.7458 8.40671 67.8509 9.46432 66.6848 9.59992C65.5187 9.73551 64.4611 8.86772 64.3255 7.67451L64.1899 6.61689C64.0272 5.28809 63.4848 4.28471 62.1289 4.28471H26.1971C24.8411 4.28471 24.2988 5.31521 24.1361 6.61689L24.0005 7.67451C23.892 8.86772 22.8344 9.73551 21.6412 9.59992C20.4751 9.46432 19.5802 8.40671 19.7158 7.2135L19.8785 6.10164C20.2852 2.63049 22.0208 0 25.5191 0Z" fill="#D60510"/>
<path d="M92.5294 25.0307C92.2853 26.0341 92.0141 27.0917 91.7158 28.2307C91.4446 29.3696 91.1463 30.4272 90.8751 31.4577C90.6039 32.4882 90.3599 33.3832 90.0887 34.1696C89.8446 34.956 89.6277 35.4713 89.465 35.7696C89.1667 36.2848 88.6785 36.5289 87.9463 36.5289C87.7565 36.5289 87.4853 36.4747 87.1599 36.3933C86.8345 36.3119 86.5633 36.095 86.3464 35.7153C86.1836 35.417 85.9938 34.8747 85.7226 34.034C85.4786 33.1933 85.2345 32.2442 84.9362 31.1594C84.665 30.0747 84.3938 28.9357 84.1226 27.7154C83.8515 26.4951 83.6074 25.3832 83.3905 24.3256C83.1735 23.2951 82.9837 22.4002 82.8481 21.668C82.7125 20.9358 82.6311 20.5019 82.604 20.3392C82.5769 20.2578 82.5769 20.1765 82.5769 20.1494V20.0409C82.5769 19.7426 82.6854 19.4714 82.9294 19.2816C83.1735 19.0918 83.4447 19.0104 83.7972 19.0104C84.1227 19.0104 84.3938 19.0918 84.5837 19.2273C84.7735 19.3629 84.9362 19.607 85.0176 19.9324C85.0176 19.9595 85.0718 20.2307 85.1532 20.7189C85.2616 21.207 85.3701 21.8307 85.5328 22.59C85.6955 23.3493 85.8582 24.19 86.0481 25.1392C86.2379 26.0883 86.4277 27.0374 86.6447 28.0137C86.8616 28.99 87.0514 29.912 87.2684 30.8069C87.4853 31.7018 87.6752 32.4882 87.865 33.1391C88.0548 32.5154 88.2446 31.8374 88.4616 31.0239C88.6785 30.2374 88.8955 29.4239 89.1124 28.5832C89.3294 27.7425 89.5463 26.9019 89.7362 26.0612C89.926 25.2205 90.1158 24.4341 90.3056 23.7019C90.4684 22.9697 90.6311 22.346 90.7395 21.7765C90.8751 21.207 90.9565 20.8002 91.0378 20.529C91.1192 20.1765 91.309 19.9053 91.5531 19.7155C91.8243 19.5256 92.1226 19.4172 92.4751 19.4172C92.8819 19.4172 93.2073 19.5256 93.4514 19.7426C93.6954 19.9595 93.8582 20.2307 93.9395 20.529C94.1293 21.4239 94.3463 22.4002 94.5904 23.5121C94.8344 24.5968 95.0785 25.7086 95.3226 26.8205C95.5666 27.9324 95.8378 29.0442 96.109 30.1289C96.3802 31.2137 96.6513 32.1628 96.8954 32.9764C97.0852 32.3255 97.2751 31.5391 97.492 30.6442C97.709 29.7222 97.8988 28.8001 98.1157 27.851C98.3327 26.9019 98.5496 25.9527 98.7395 25.0036C98.9293 24.0544 99.1191 23.2137 99.2818 22.4544C99.4445 21.6951 99.5801 21.0985 99.6615 20.6375C99.77 20.1765 99.7971 19.9324 99.7971 19.9053C99.8784 19.5528 100.041 19.3087 100.231 19.2002C100.421 19.0646 100.692 18.9833 101.017 18.9833C101.37 18.9833 101.641 19.0646 101.885 19.2545C102.129 19.4443 102.238 19.6884 102.238 20.0138V20.1223C102.238 20.1494 102.238 20.2307 102.211 20.3121C102.184 20.4477 102.102 20.8816 101.939 21.6409C101.804 22.3731 101.614 23.268 101.397 24.2985C101.18 25.3561 100.936 26.468 100.665 27.6612C100.394 28.8544 100.123 30.0205 99.8784 31.0781C99.6073 32.1628 99.3632 33.112 99.1191 33.9526C98.8751 34.7662 98.6581 35.3357 98.4954 35.6069C98.2785 35.9865 98.0073 36.2306 97.6547 36.3391C97.3293 36.4475 97.0581 36.4746 96.8412 36.4746C96.7598 36.4746 96.6514 36.4747 96.5158 36.4475C96.3802 36.4204 96.2175 36.3933 96.0547 36.3391C95.892 36.2848 95.7293 36.2035 95.5666 36.095C95.4039 35.9865 95.2683 35.8238 95.187 35.6069C95.0242 35.2543 94.8344 34.6848 94.5904 33.8984C94.3734 33.112 94.1293 32.2171 93.8582 31.2137C93.587 30.2103 93.3429 29.1527 93.0717 28.0679C92.9904 27.0103 92.7463 25.9798 92.5294 25.0307Z" fill="black"/>
<path d="M106.766 31.5129C106.495 32.3807 106.251 33.1943 106.034 33.9265C105.817 34.6587 105.628 35.2824 105.438 35.7434C105.248 36.2587 104.841 36.5298 104.244 36.5298C103.838 36.5298 103.512 36.4214 103.322 36.2315C103.133 36.0146 103.051 35.7434 103.051 35.418C103.051 35.2824 103.078 35.1739 103.106 35.0654C103.133 34.957 103.241 34.5773 103.458 33.9536C103.648 33.3299 103.892 32.5434 104.217 31.5943C104.516 30.6451 104.868 29.6147 105.248 28.5028C105.628 27.3909 106.007 26.2791 106.414 25.1672C106.821 24.0825 107.2 23.052 107.58 22.1028C107.96 21.1537 108.312 20.3944 108.638 19.7978C108.773 19.4995 108.99 19.2825 109.234 19.1741C109.478 19.0656 109.804 19.0114 110.238 19.0114C110.644 19.0114 110.97 19.0656 111.268 19.2012C111.539 19.3368 111.756 19.5537 111.865 19.852C112.109 20.3944 112.434 21.1266 112.787 22.0215C113.139 22.9435 113.519 23.9198 113.899 24.9774C114.278 26.035 114.685 27.1198 115.065 28.2045C115.444 29.3163 115.797 30.3468 116.122 31.296C116.448 32.2451 116.719 33.0587 116.936 33.7366C117.153 34.4146 117.316 34.8485 117.37 35.0383C117.397 35.1468 117.424 35.2553 117.424 35.3909C117.424 35.7163 117.316 35.9875 117.099 36.2044C116.882 36.4214 116.556 36.5027 116.149 36.5027C115.851 36.5027 115.607 36.4485 115.444 36.2858C115.309 36.1502 115.173 35.9604 115.092 35.7163C114.902 35.2553 114.685 34.6316 114.441 33.8994C114.197 33.1672 113.926 32.3536 113.655 31.4858H106.766V31.5129ZM112.814 29.1536C112.434 27.9875 112.082 26.9028 111.729 25.9265C111.377 24.9503 111.024 24.0011 110.672 23.1062C110.59 22.9164 110.482 22.6723 110.4 22.4012C110.292 22.1571 110.238 21.9944 110.238 21.9401C110.211 21.9401 110.156 22.1028 110.075 22.374C109.966 22.6452 109.885 22.8893 109.777 23.0791C109.424 23.974 109.072 24.896 108.719 25.8994C108.394 26.8757 108.014 27.9604 107.634 29.1265H112.814V29.1536Z" fill="black"/>
<path d="M122.034 29.6944C121.953 29.613 121.871 29.5045 121.79 29.3961C121.709 29.2876 121.627 29.152 121.519 29.0164C121.275 28.6639 121.004 28.23 120.678 27.7147C120.38 27.1995 120.082 26.6571 119.783 26.0876C119.485 25.5181 119.187 24.9215 118.916 24.3249C118.644 23.7283 118.373 23.1859 118.156 22.6978C117.939 22.1826 117.722 21.7487 117.56 21.3961C117.397 21.0165 117.288 20.7724 117.261 20.6097C117.234 20.5283 117.207 20.447 117.207 20.4199C117.207 20.3656 117.18 20.3114 117.18 20.23C117.18 19.9046 117.288 19.6334 117.505 19.4165C117.722 19.1995 118.048 19.0911 118.454 19.0911C118.807 19.0911 119.078 19.1724 119.241 19.3622C119.404 19.5521 119.512 19.7148 119.566 19.9046C119.593 19.986 119.702 20.2029 119.838 20.5012C119.973 20.7995 120.136 21.1792 120.326 21.6402C120.515 22.1012 120.76 22.5893 121.004 23.1317C121.275 23.6741 121.519 24.2164 121.79 24.7317C122.061 25.2469 122.305 25.7622 122.549 26.2232C122.793 26.7113 123.038 27.091 123.254 27.4164C123.607 26.9012 123.96 26.2232 124.366 25.4368C124.773 24.6503 125.153 23.8639 125.505 23.0775C125.858 22.291 126.183 21.6131 126.454 21.0165C126.726 20.4199 126.861 20.0402 126.943 19.9046C127.024 19.7148 127.132 19.5521 127.268 19.3622C127.431 19.1724 127.675 19.0911 128.054 19.0911C128.461 19.0911 128.759 19.1995 129.004 19.4165C129.22 19.6334 129.329 19.9046 129.329 20.23C129.329 20.3114 129.329 20.3927 129.302 20.4199C129.275 20.447 129.275 20.5283 129.248 20.6097C129.193 20.7453 129.085 21.0165 128.922 21.3961C128.759 21.7758 128.57 22.2097 128.353 22.7249C128.136 23.2402 127.865 23.7825 127.593 24.352C127.322 24.9486 127.024 25.5181 126.726 26.1147C126.427 26.6842 126.129 27.2537 125.831 27.769C125.532 28.2842 125.261 28.7452 124.99 29.0978C124.827 29.3418 124.665 29.5316 124.475 29.7215V35.335C124.475 35.6875 124.366 35.9858 124.122 36.2299C123.905 36.4468 123.607 36.5553 123.227 36.5553C122.848 36.5553 122.576 36.4468 122.332 36.2299C122.115 36.0129 121.98 35.7146 121.98 35.335V29.6944H122.034Z" fill="black"/>
</svg>
